<?xml version="1.0" encoding="UTF-8" standalone="no"?>
<!DOCTYPE svg PUBLIC "-//W3C//DTD SVG 1.1//EN"
 "http://www.w3.org/Graphics/SVG/1.1/DTD/svg11.dtd">
<!-- Generated by graphviz version 2.38.0 (20140413.2041)
 -->
<!-- Title: Call graph Pages: 1 -->
<svg width="1800pt" height="359pt"
 viewBox="0.00 0.00 1800.00 359.00" xmlns="http://www.w3.org/2000/svg" xmlns:xlink="http://www.w3.org/1999/xlink">
<g id="graph0" class="graph" transform="scale(1 1) rotate(0) translate(4 355)">
<title>Call graph</title>
<polygon fill="white" stroke="none" points="-4,4 -4,-355 1796,-355 1796,4 -4,4"/>
<text text-anchor="middle" x="896" y="-7.8" font-family="Times,serif" font-size="14.00">Call graph</text>
<!-- Node0x3b0d580 -->
<g id="node1" class="node"><title>Node0x3b0d580</title>
<polygon fill="none" stroke="black" points="996.5,-314.5 996.5,-350.5 1086.5,-350.5 1086.5,-314.5 996.5,-314.5"/>
<text text-anchor="middle" x="1041.5" y="-328.8" font-family="Times,serif" font-size="14.00">external node</text>
</g>
<!-- Node0x534a0a0 -->
<g id="node2" class="node"><title>Node0x534a0a0</title>
<polygon fill="none" stroke="black" points="1014.5,-241.5 1014.5,-277.5 1068.5,-277.5 1068.5,-241.5 1014.5,-241.5"/>
<text text-anchor="middle" x="1041.5" y="-255.8" font-family="Times,serif" font-size="14.00">main</text>
</g>
<!-- Node0x3b0d580&#45;&gt;Node0x534a0a0 -->
<g id="edge1" class="edge"><title>Node0x3b0d580&#45;&gt;Node0x534a0a0</title>
<path fill="none" stroke="black" d="M1041.5,-314.313C1041.5,-306.289 1041.5,-296.547 1041.5,-287.569"/>
<polygon fill="black" stroke="black" points="1045,-287.529 1041.5,-277.529 1038,-287.529 1045,-287.529"/>
</g>
<!-- Node0x465d5e0 -->
<g id="node3" class="node"><title>Node0x465d5e0</title>
<polygon fill="none" stroke="black" points="161,-168.5 161,-204.5 268,-204.5 268,-168.5 161,-168.5"/>
<text text-anchor="middle" x="214.5" y="-182.8" font-family="Times,serif" font-size="14.00">readDictionary()</text>
</g>
<!-- Node0x534a0a0&#45;&gt;Node0x465d5e0 -->
<g id="edge3" class="edge"><title>Node0x534a0a0&#45;&gt;Node0x465d5e0</title>
<path fill="none" stroke="black" d="M1014.45,-256.178C899.127,-246.277 446.681,-207.433 278.186,-192.968"/>
<polygon fill="black" stroke="black" points="278.483,-189.48 268.221,-192.112 277.884,-196.455 278.483,-189.48"/>
</g>
<!-- Node0x3b6c8f0 -->
<g id="node4" class="node"><title>Node0x3b6c8f0</title>
<polygon fill="none" stroke="black" points="0,-95.5 0,-131.5 137,-131.5 137,-95.5 0,-95.5"/>
<text text-anchor="middle" x="68.5" y="-109.8" font-family="Times,serif" font-size="14.00">operator delete(void*)</text>
</g>
<!-- Node0x534a0a0&#45;&gt;Node0x3b6c8f0 -->
<g id="edge8" class="edge"><title>Node0x534a0a0&#45;&gt;Node0x3b6c8f0</title>
<path fill="none" stroke="black" d="M1014.24,-255.491C905.761,-243.342 494.131,-195.574 147.273,-132.262"/>
<polygon fill="black" stroke="black" points="147.756,-128.792 137.288,-130.432 146.494,-135.678 147.756,-128.792"/>
</g>
<!-- Node0x483d720 -->
<g id="node5" class="node"><title>Node0x483d720</title>
<polygon fill="none" stroke="black" points="760.5,-168.5 760.5,-204.5 864.5,-204.5 864.5,-168.5 760.5,-168.5"/>
<text text-anchor="middle" x="812.5" y="-182.8" font-family="Times,serif" font-size="14.00">readWhiteList()</text>
</g>
<!-- Node0x534a0a0&#45;&gt;Node0x483d720 -->
<g id="edge4" class="edge"><title>Node0x534a0a0&#45;&gt;Node0x483d720</title>
<path fill="none" stroke="black" d="M1014.33,-250.077C980.115,-239.468 920.28,-220.916 874.616,-206.759"/>
<polygon fill="black" stroke="black" points="875.396,-203.336 864.808,-203.718 873.323,-210.022 875.396,-203.336"/>
</g>
<!-- Node0x43b1d60 -->
<g id="node6" class="node"><title>Node0x43b1d60</title>
<polygon fill="none" stroke="black" points="883,-168.5 883,-204.5 994,-204.5 994,-168.5 883,-168.5"/>
<text text-anchor="middle" x="938.5" y="-182.8" font-family="Times,serif" font-size="14.00">writeDictionary()</text>
</g>
<!-- Node0x534a0a0&#45;&gt;Node0x43b1d60 -->
<g id="edge11" class="edge"><title>Node0x534a0a0&#45;&gt;Node0x43b1d60</title>
<path fill="none" stroke="black" d="M1016.83,-241.494C1003.3,-232.166 986.336,-220.474 971.66,-210.358"/>
<polygon fill="black" stroke="black" points="973.547,-207.407 963.327,-204.614 969.574,-213.171 973.547,-207.407"/>
</g>
<!-- Node0x5d1f6c0 -->
<g id="node7" class="node"><title>Node0x5d1f6c0</title>
<polygon fill="none" stroke="black" points="155,-95.5 155,-131.5 1032,-131.5 1032,-95.5 155,-95.5"/>
<text text-anchor="middle" x="593.5" y="-109.8" font-family="Times,serif" font-size="14.00">clang::tooling::CommonOptionsParser::CommonOptionsParser(int&amp;, char const**, llvm::cl::OptionCategory&amp;, llvm::cl::NumOccurrencesFlag, char const*)</text>
</g>
<!-- Node0x534a0a0&#45;&gt;Node0x5d1f6c0 -->
<g id="edge5" class="edge"><title>Node0x534a0a0&#45;&gt;Node0x5d1f6c0</title>
<path fill="none" stroke="black" d="M1039.44,-241.404C1035.95,-220.517 1026.81,-185.773 1003.5,-168 982.63,-152.085 940.23,-140.897 890.302,-133.033"/>
<polygon fill="black" stroke="black" points="890.632,-129.543 880.22,-131.505 889.583,-136.464 890.632,-129.543"/>
</g>
<!-- Node0x51e1a40 -->
<g id="node8" class="node"><title>Node0x51e1a40</title>
<ellipse fill="none" stroke="black" cx="1142.5" cy="-41" rx="68.4888" ry="18"/>
<text text-anchor="middle" x="1142.5" y="-37.3" font-family="Times,serif" font-size="14.00">Node0x51e1a40</text>
</g>
<!-- Node0x534a0a0&#45;&gt;Node0x51e1a40 -->
<g id="edge6" class="edge"><title>Node0x534a0a0&#45;&gt;Node0x51e1a40</title>
<path fill="none" stroke="black" d="M1042.14,-241.428C1044.02,-210.16 1051.42,-142.551 1080.5,-95 1087.8,-83.0624 1098.7,-72.4441 1109.34,-63.9051"/>
<polygon fill="black" stroke="black" points="1111.52,-66.6394 1117.35,-57.7932 1107.28,-61.0726 1111.52,-66.6394"/>
</g>
<!-- Node0x5506380 -->
<g id="node9" class="node"><title>Node0x5506380</title>
<polygon fill="none" stroke="black" points="1089,-95.5 1089,-131.5 1196,-131.5 1196,-95.5 1089,-95.5"/>
<text text-anchor="middle" x="1142.5" y="-109.8" font-family="Times,serif" font-size="14.00">Node0x5506380</text>
</g>
<!-- Node0x534a0a0&#45;&gt;Node0x5506380 -->
<g id="edge7" class="edge"><title>Node0x534a0a0&#45;&gt;Node0x5506380</title>
<path fill="none" stroke="black" d="M1053.48,-241.416C1071.1,-216.3 1104.11,-169.234 1124.61,-140.014"/>
<polygon fill="black" stroke="black" points="1127.66,-141.759 1130.53,-131.562 1121.93,-137.739 1127.66,-141.759"/>
</g>
<!-- Node0x473e680 -->
<g id="node10" class="node"><title>Node0x473e680</title>
<polygon fill="none" stroke="black" points="1214,-95.5 1214,-131.5 1387,-131.5 1387,-95.5 1214,-95.5"/>
<text text-anchor="middle" x="1300.5" y="-109.8" font-family="Times,serif" font-size="14.00">operator new(unsigned long)</text>
</g>
<!-- Node0x534a0a0&#45;&gt;Node0x473e680 -->
<g id="edge9" class="edge"><title>Node0x534a0a0&#45;&gt;Node0x473e680</title>
<path fill="none" stroke="black" d="M1068.73,-243.362C1114.65,-217.832 1207.66,-166.116 1260.84,-136.551"/>
<polygon fill="black" stroke="black" points="1262.61,-139.57 1269.65,-131.652 1259.21,-133.452 1262.61,-139.57"/>
</g>
<!-- Node0x4d9b1e0 -->
<g id="node11" class="node"><title>Node0x4d9b1e0</title>
<polygon fill="none" stroke="black" points="1405,-95.5 1405,-131.5 1748,-131.5 1748,-95.5 1405,-95.5"/>
<text text-anchor="middle" x="1576.5" y="-109.8" font-family="Times,serif" font-size="14.00">clang::tooling::ClangTool::run(clang::tooling::ToolAction*)</text>
</g>
<!-- Node0x534a0a0&#45;&gt;Node0x4d9b1e0 -->
<g id="edge10" class="edge"><title>Node0x534a0a0&#45;&gt;Node0x4d9b1e0</title>
<path fill="none" stroke="black" d="M1068.77,-251.161C1148.4,-229.727 1382.6,-166.691 1503.07,-134.264"/>
<polygon fill="black" stroke="black" points="1504.21,-137.583 1512.96,-131.604 1502.39,-130.823 1504.21,-137.583"/>
</g>
<!-- Node0x71bba40 -->
<g id="node12" class="node"><title>Node0x71bba40</title>
<polygon fill="none" stroke="black" points="1553,-168.5 1553,-204.5 1792,-204.5 1792,-168.5 1553,-168.5"/>
<text text-anchor="middle" x="1672.5" y="-182.8" font-family="Times,serif" font-size="14.00">clang::tooling::ClangTool::~ClangTool()</text>
</g>
<!-- Node0x534a0a0&#45;&gt;Node0x71bba40 -->
<g id="edge12" class="edge"><title>Node0x534a0a0&#45;&gt;Node0x71bba40</title>
<path fill="none" stroke="black" d="M1068.61,-255.449C1149.09,-246.394 1390.44,-219.237 1542.55,-202.122"/>
<polygon fill="black" stroke="black" points="1543.34,-205.555 1552.89,-200.959 1542.56,-198.599 1543.34,-205.555"/>
</g>
<!-- Node0x465d5e0&#45;&gt;Node0x3b6c8f0 -->
<g id="edge2" class="edge"><title>Node0x465d5e0&#45;&gt;Node0x3b6c8f0</title>
<path fill="none" stroke="black" d="M179.529,-168.494C159.541,-158.773 134.275,-146.487 112.897,-136.09"/>
<polygon fill="black" stroke="black" points="114.215,-132.839 103.691,-131.614 111.154,-139.134 114.215,-132.839"/>
</g>
<!-- Node0x3b6c8f0&#45;&gt;Node0x51e1a40 -->
<g id="edge18" class="edge"><title>Node0x3b6c8f0&#45;&gt;Node0x51e1a40</title>
<path fill="none" stroke="black" d="M137.24,-96.2674C140.023,-95.8037 142.784,-95.378 145.5,-95 485.14,-47.7284 895.25,-41.867 1064.08,-41.6438"/>
<polygon fill="black" stroke="black" points="1064.12,-45.1439 1074.12,-41.6369 1064.12,-38.1439 1064.12,-45.1439"/>
</g>
<!-- Node0x5d1f6c0&#45;&gt;Node0x51e1a40 -->
<g id="edge17" class="edge"><title>Node0x5d1f6c0&#45;&gt;Node0x51e1a40</title>
<path fill="none" stroke="black" d="M726.048,-95.4789C835.166,-81.4664 985.573,-62.1519 1072.58,-50.9787"/>
<polygon fill="black" stroke="black" points="1073.14,-54.436 1082.61,-49.6907 1072.25,-47.493 1073.14,-54.436"/>
</g>
<!-- Node0x5506380&#45;&gt;Node0x51e1a40 -->
<g id="edge13" class="edge"><title>Node0x5506380&#45;&gt;Node0x51e1a40</title>
<path fill="none" stroke="black" d="M1142.5,-95.4339C1142.5,-87.6695 1142.5,-78.2842 1142.5,-69.5597"/>
<polygon fill="black" stroke="black" points="1146,-69.3987 1142.5,-59.3987 1139,-69.3987 1146,-69.3987"/>
</g>
<!-- Node0x473e680&#45;&gt;Node0x51e1a40 -->
<g id="edge14" class="edge"><title>Node0x473e680&#45;&gt;Node0x51e1a40</title>
<path fill="none" stroke="black" d="M1262.25,-95.4339C1238.87,-85.0009 1208.93,-71.6415 1184.84,-60.8907"/>
<polygon fill="black" stroke="black" points="1186.14,-57.6389 1175.58,-56.7603 1183.29,-64.0314 1186.14,-57.6389"/>
</g>
<!-- Node0x4d9b1e0&#45;&gt;Node0x51e1a40 -->
<g id="edge15" class="edge"><title>Node0x4d9b1e0&#45;&gt;Node0x51e1a40</title>
<path fill="none" stroke="black" d="M1471.72,-95.4789C1389.95,-82.1964 1278.86,-64.1499 1208.92,-52.7894"/>
<polygon fill="black" stroke="black" points="1209.34,-49.3119 1198.91,-51.1631 1208.22,-56.2213 1209.34,-49.3119"/>
</g>
<!-- Node0x71bba40&#45;&gt;Node0x51e1a40 -->
<g id="edge16" class="edge"><title>Node0x71bba40&#45;&gt;Node0x51e1a40</title>
<path fill="none" stroke="black" d="M1717.09,-168.346C1732.76,-159.908 1748.65,-148.027 1757.5,-132 1765.45,-117.604 1768.62,-107.117 1757.5,-95 1721.88,-56.1729 1377.98,-45.7225 1220.52,-42.9641"/>
<polygon fill="black" stroke="black" points="1220.48,-39.4631 1210.42,-42.7933 1220.36,-46.4621 1220.48,-39.4631"/>
</g>
</g>
</svg>
